<svg width="348" height="153" viewBox="0 0 348 153" fill="none" xmlns="http://www.w3.org/2000/svg">
<path d="M37.8156 77.7692C31.9464 77.9261 26.1186 76.7451 20.7735 74.3156C16.239 72.17 12.2319 69.0528 9.03694 65.1852C6.02841 61.5397 3.71438 57.3731 2.20957 52.8923C0.786174 48.7608 0.0400949 44.4264 0 40.0568V37.8469C0.00133276 33.2234 0.765756 28.6318 2.26255 24.2573C3.76469 19.8159 6.11486 15.7084 9.18263 12.1628C12.4053 8.47355 16.3921 5.52959 20.8662 3.53528C26.0554 1.30064 31.6645 0.208538 37.3129 0.333054C43.4619 0.234259 49.5524 1.53755 55.1226 4.144C60.1912 6.51087 64.5344 10.1911 67.701 14.8029C70.8675 19.4146 72.7424 24.7898 73.1309 30.3707H62.5456C60.5075 30.3711 58.5004 29.869 56.7025 28.9088C54.9047 27.9487 53.3714 26.5601 52.2382 24.8659C51.9841 24.4815 51.7101 24.1106 51.4177 23.7545C49.825 21.8454 47.7964 20.3477 45.5032 19.3878C42.8939 18.3165 40.0934 17.7897 37.2732 17.8395C34.6077 17.7984 31.9625 18.3121 29.5061 19.348C27.2629 20.3003 25.2704 21.7586 23.6844 23.6089C22.0558 25.5546 20.8282 27.8031 20.0722 30.2251C18.4135 35.9922 18.4135 42.11 20.0722 47.8771C20.8372 50.3492 22.1029 52.6374 23.7903 54.5992C25.4198 56.4657 27.4635 57.9248 29.7578 58.86C32.309 59.8672 35.0334 60.3619 37.7758 60.3157C42.0047 60.4518 46.1698 59.2578 49.6843 56.9017C51.1618 55.8855 52.4364 54.6019 53.4421 53.1172C54.5789 51.4699 56.102 50.1261 57.8781 49.2035C59.6541 48.2808 61.629 47.8072 63.6304 47.8242H74.2156C73.6398 53.3069 71.6933 58.5564 68.5554 63.0889C65.4175 67.6215 61.1895 71.2912 56.2606 73.7598C50.5269 76.5679 44.1976 77.9438 37.8156 77.7692Z" fill="#2E3745"/>
<path d="M124.116 29.4196C121.937 26.0179 118.742 23.3883 114.986 21.9036C110.371 20.1107 105.446 19.256 100.497 19.3895C98.4859 19.3895 96.2895 19.3895 93.8813 19.4953C91.4732 19.6012 89.2239 19.6542 87.0142 19.7997C84.8045 19.9453 82.8991 20.0644 81.2981 20.1967V35.4405L88.8135 35.0434C91.5525 34.9111 94.1725 34.8053 96.6468 34.7391C99.1211 34.6729 100.987 34.6332 102.257 34.6332C104.903 34.6332 106.848 35.2552 108.026 36.499C109.278 38.0343 109.902 39.987 109.772 41.964H101.053C96.5418 41.8917 92.0459 42.4984 87.7155 43.7636C84.1926 44.745 81.0242 46.7149 78.5855 49.4403C76.286 52.278 75.1088 55.8616 75.2777 59.5103C75.1838 62.8544 76.0715 66.1527 77.8313 68.9979C79.5607 71.6553 82.0182 73.7591 84.9103 75.0584C88.1526 76.5156 91.6768 77.2385 95.231 77.1755C98.6188 77.2813 101.981 76.5543 105.022 75.0584C107.669 73.6557 112.789 75.7596 112.789 75.7596H127.278V42.1625C127.452 37.701 126.355 33.2819 124.116 29.4196ZM108.41 61.1775C107.735 62.4645 106.663 63.4995 105.353 64.1284C104.012 64.7214 102.558 65.0149 101.092 64.9884C99.0181 65.1246 96.9709 64.4564 95.3763 63.1227C94.7119 62.5053 94.1883 61.7519 93.8413 60.9139C93.4942 60.0758 93.3321 59.1729 93.3654 58.2664C93.3237 57.3433 93.4815 56.4219 93.8287 55.5655C94.1758 54.7091 94.7036 53.9378 95.3763 53.3042C96.9709 51.9705 99.0181 51.3023 101.092 51.4384H109.825V55.4082C109.784 57.3952 109.301 59.3481 108.41 61.1246V61.1775Z" fill="#2E3745"/>
<path d="M156.56 77.5707C148.541 77.5707 142.225 75.9166 137.612 72.6085C135.36 71.0239 133.514 68.93 132.224 66.4973C130.935 64.0646 130.237 61.3617 130.189 58.6086H146.186C146.365 59.5084 146.735 60.3592 147.272 61.1035C147.808 61.8477 148.499 62.468 149.296 62.9224C151.604 64.2596 154.254 64.8899 156.917 64.7352C158.987 64.7808 161.045 64.4212 162.977 63.6766C163.723 63.4555 164.377 62.9977 164.84 62.3723C165.303 61.7469 165.55 60.9879 165.544 60.2097C165.537 59.509 165.348 58.822 164.996 58.2165C164.643 57.6109 164.139 57.1076 163.533 56.7561C162.192 55.8739 159.753 55.2564 156.216 54.9035L152.405 54.4933C145.348 53.7699 140.131 51.8336 136.752 48.6843C135.12 47.1817 133.829 45.3477 132.964 43.3051C132.099 41.2626 131.681 39.0587 131.737 36.8413C131.592 33.2381 132.654 29.6896 134.754 26.7582C136.901 24.0141 139.789 21.943 143.076 20.7904C146.967 19.3959 151.078 18.7189 155.21 18.7922C162.629 18.7922 168.613 20.411 173.165 23.6485C175.397 25.2379 177.218 27.3376 178.474 29.7728C179.731 32.208 180.388 34.9081 180.39 37.6485H164.34C164.035 35.9253 163.059 34.3932 161.627 33.3876C159.674 32.0925 157.35 31.4743 155.011 31.6277C153.256 31.5577 151.513 31.9356 149.944 32.7259C149.355 33.0036 148.858 33.4439 148.511 33.9948C148.164 34.5458 147.982 35.1845 147.986 35.8356C147.957 36.4782 148.117 37.115 148.447 37.6676C148.776 38.2202 149.259 38.6643 149.838 38.9452C151.724 39.7932 153.743 40.3037 155.805 40.4537L159.616 40.8507C166.673 41.5917 172.142 43.5501 176.023 46.7259C177.885 48.2203 179.375 50.1261 180.376 52.2935C181.377 54.4609 181.861 56.8309 181.792 59.2173C181.88 62.7413 180.807 66.1963 178.736 69.049C176.481 71.9376 173.453 74.1265 170.003 75.3609C165.696 76.9183 161.139 77.6675 156.56 77.5707Z" fill="#2E3745"/>
<path d="M245.291 35.5464C244.204 32.2812 242.482 29.2636 240.223 26.6675C238.031 24.1732 235.322 22.1864 232.284 20.8452C229.022 19.442 225.501 18.7431 221.95 18.7942C217.544 18.7942 209.976 19.7734 206.575 21.745C203.175 23.7166 186.04 20.4217 186.04 20.4217V95.8466H204.299V76.7125C204.3 76.151 204.451 75.5998 204.737 75.1166C205.023 74.6333 205.433 74.2357 205.925 73.9653C206.417 73.6949 206.973 73.5616 207.534 73.5793C208.095 73.597 208.642 73.7651 209.116 74.0661C209.632 74.4117 210.167 74.7297 210.717 75.0187C214.235 76.7726 218.126 77.6489 222.056 77.5726C225.725 77.6409 229.366 76.9236 232.734 75.4687C235.781 74.1079 238.474 72.0662 240.607 69.5009C242.795 66.8372 244.432 63.765 245.423 60.4631C246.524 56.8076 247.064 53.0064 247.024 49.189V46.7807C247.071 42.9659 246.485 39.1698 245.291 35.5464ZM227.283 55.5009C226.348 57.5895 224.856 59.3797 222.969 60.6748C221.084 61.9222 218.865 62.5682 216.605 62.5273C214.546 62.5136 212.52 62.015 210.69 61.0718C208.746 60.1067 207.086 58.652 205.874 56.8507C204.574 54.8938 203.908 52.5834 203.969 50.2344V46.8337C203.894 44.3688 204.518 41.9331 205.768 39.8073C206.9 37.9412 208.513 36.4145 210.439 35.3876C212.341 34.393 214.458 33.8796 216.605 33.8923C218.869 33.8336 221.1 34.441 223.022 35.639C224.868 36.857 226.342 38.5602 227.283 40.5615C228.377 42.8985 228.911 45.4582 228.844 48.0378C228.883 50.6105 228.35 53.1598 227.283 55.5009Z" fill="#2E3745"/>
<path d="M279.127 77.7704C274.858 77.8491 270.621 77.0285 266.69 75.3621C263.217 73.8627 260.104 71.6385 257.56 68.8385C252.664 63.4223 249.949 56.3838 249.939 49.0825V47.0711C249.925 43.391 250.589 39.7398 251.897 36.2999C253.162 32.9077 255.066 29.7901 257.507 27.1166C260.023 24.3886 263.084 22.22 266.491 20.7518C270.289 19.1228 274.387 18.3157 278.519 18.3832C283.847 18.2043 289.112 19.5839 293.669 22.353C297.745 24.953 301.038 28.6121 303.196 32.9389C305.416 37.3776 306.55 42.2803 306.504 47.2432V53.1051H257.547V43.2734H295.918L289.607 47.693C289.649 44.9883 289.201 42.2984 288.284 39.7536C287.581 37.7583 286.283 36.0265 284.566 34.7914C282.736 33.6 280.582 33.0038 278.4 33.0844C276.195 33.032 274.02 33.6056 272.128 34.7385C270.285 35.9466 268.865 37.6998 268.066 39.7536C267.054 42.4636 266.578 45.3442 266.663 48.2356C266.61 50.9411 267.058 53.6331 267.986 56.1751C268.736 58.2723 270.124 60.0817 271.956 61.3489C274.067 62.6335 276.513 63.2601 278.982 63.1486C281.144 63.2212 283.292 62.7671 285.24 61.8253C286.761 61.078 287.983 59.8371 288.707 58.3055H305.352C304.594 61.9834 302.961 65.4241 300.589 68.3357C298.166 71.3216 295.074 73.6967 291.565 75.2694C287.645 76.9816 283.404 77.8343 279.127 77.7704Z" fill="#2E3745"/>
<path d="M312.209 75.759V20.3946L326.605 23.9938C326.605 23.9938 339.175 19.5345 345.261 19.5345H347.471V35.2414H343.263C339.175 35.2414 336.025 36.3397 333.776 38.5495C331.527 40.7593 330.415 43.9351 330.415 48.0768V75.759H312.209Z" fill="#2E3745"/>
<path d="M30.3531 99.7534C27.1309 98.5193 23.6925 97.9304 20.2378 98.021C18.776 98.021 17.3141 98.021 15.6477 98.021C13.9812 98.021 12.3879 98.1364 10.853 98.2375C9.31817 98.3385 7.92953 98.4107 6.86244 98.5118V109.022C8.45576 108.921 10.1954 108.834 12.1103 108.748C14.0252 108.661 15.8524 108.589 17.5773 108.531C19.3022 108.473 20.603 108.531 21.4947 108.531C22.2193 108.461 22.9506 108.538 23.6442 108.757C24.3378 108.975 24.9792 109.33 25.5292 109.802C26.3925 110.866 26.825 112.208 26.7426 113.57H20.6614C17.5123 113.523 14.374 113.942 11.3502 114.811C8.89057 115.486 6.67854 116.844 4.9767 118.724C3.36801 120.684 2.54618 123.161 2.66736 125.682C2.59936 127.983 3.21962 130.253 4.45067 132.208C5.65304 134.04 7.36262 135.493 9.37663 136.395C11.6474 137.393 14.1126 137.886 16.5977 137.838C18.9585 137.917 21.303 137.421 23.4243 136.395C25.2662 135.427 28.8474 136.885 28.8474 136.885H38.9335V113.786C39.0593 110.708 38.2935 107.658 36.7262 104.994C35.2092 102.632 32.9804 100.799 30.3531 99.7534ZM25.7629 126.794C25.2907 127.681 24.5426 128.394 23.6288 128.829C22.7102 129.236 21.712 129.439 20.7053 129.421C19.2591 129.521 17.8296 129.066 16.7147 128.151C16.2372 127.73 15.8588 127.21 15.6063 126.629C15.3537 126.048 15.2332 125.419 15.2529 124.787C15.2315 124.146 15.351 123.509 15.6034 122.918C15.8558 122.327 16.235 121.798 16.7147 121.366C17.8296 120.45 19.2591 119.995 20.7053 120.095H26.7865V122.78C26.7692 124.179 26.4183 125.554 25.7629 126.794Z" fill="#2E3745"/>
<path d="M57.5673 100.291L47.7982 98.5636V136.961H60.1867V117.755C60.059 116.554 60.1957 115.34 60.5867 114.201C60.9777 113.061 61.6131 112.027 62.446 111.173C63.2789 110.319 64.2879 109.667 65.399 109.266C66.51 108.865 67.6947 108.725 68.8656 108.856H71.6973V98.0119H70.2109C66.0625 98.0119 57.5673 100.291 57.5673 100.291Z" fill="#2E3745"/>
<path d="M131.046 99.1353C128.882 97.7532 126.353 97.0572 123.789 97.1376H123.237C120.701 97.0557 118.2 97.7526 116.067 99.1353C114.037 100.611 112.515 102.685 111.713 105.07C111.704 105.104 111.704 105.139 111.713 105.172V105.07C110.914 102.684 109.391 100.608 107.358 99.1353C105.205 97.7282 102.668 97.03 100.101 97.1376H99.5349C97.0028 97.0559 94.5064 97.7529 92.3793 99.1353C90.4343 100.462 87.0235 98.3916 87.0235 98.3916H77.0082V136.961H89.6652V114.811C89.5818 113.159 90.0975 111.532 91.1167 110.232C91.6274 109.641 92.2648 109.173 92.9813 108.865C93.6979 108.557 94.4746 108.416 95.2532 108.453C96.0219 108.41 96.79 108.548 97.4959 108.857C98.2018 109.166 98.8257 109.637 99.3173 110.232C100.291 111.478 100.804 113.024 100.769 114.607V136.903H113.411V114.811C113.335 113.16 113.85 111.536 114.862 110.232C115.373 109.641 116.011 109.173 116.727 108.865C117.444 108.557 118.221 108.416 118.999 108.453C119.77 108.41 120.54 108.548 121.248 108.857C121.957 109.166 122.583 109.637 123.078 110.232C124.046 111.481 124.558 113.025 124.529 114.607V136.903H137.186V115.03C137.288 111.645 136.756 108.272 135.618 105.085C134.742 102.675 133.145 100.597 131.046 99.1353Z" fill="#2E3745"/>
<path d="M169.254 98.897L162.916 126.868H161.624L153.683 98.897H140.739L152.183 136.663H160.719L160.452 137.86C160.288 138.796 159.924 139.687 159.383 140.473C158.91 141.095 158.266 141.571 157.527 141.845C156.634 142.142 155.694 142.28 154.751 142.254H145.726V152.882H153.297C156.382 152.972 159.463 152.583 162.426 151.729C164.657 151.047 166.604 149.675 167.977 147.816C169.518 145.536 170.592 142.982 171.139 140.298L181.456 98.897H169.254Z" fill="#2E3745"/>
<path d="M204.47 120.142H185.882V138.731H204.47V120.142Z" fill="#FF0202"/>
</svg>
