<svg width="133" height="61" viewBox="0 0 133 61" fill="none" xmlns="http://www.w3.org/2000/svg">
<g clip-path="url(#clip0_97_208)">
<path d="M13.1138 36.4322C11.0784 36.4866 9.05747 36.0771 7.20388 35.2346C5.63138 34.4906 4.24182 33.4097 3.13385 32.0686C2.09054 30.8045 1.28808 29.3596 0.766239 27.8059C0.272631 26.3733 0.0139042 24.8703 0 23.3551V22.5888C0.000462176 20.9855 0.265551 19.3933 0.784611 17.8764C1.30553 16.3363 2.12052 14.912 3.18437 13.6826C4.30193 12.4033 5.68448 11.3824 7.23603 10.6909C9.03555 9.91598 10.9807 9.53729 12.9395 9.58047C15.0718 9.54621 17.1839 9.99814 19.1155 10.9019C20.8733 11.7227 22.3794 12.9988 23.4775 14.598C24.5756 16.1972 25.2258 18.0611 25.3605 19.9963H21.6897C20.9829 19.9965 20.2869 19.8223 19.6634 19.4894C19.04 19.1565 18.5083 18.6749 18.1153 18.0875C18.0272 17.9542 17.9321 17.8256 17.8307 17.7021C17.2784 17.0401 16.575 16.5208 15.7797 16.1879C14.8749 15.8164 13.9037 15.6337 12.9257 15.651C12.0013 15.6367 11.084 15.8149 10.2322 16.1741C9.45428 16.5043 8.76333 17.01 8.21332 17.6516C7.64857 18.3263 7.22286 19.106 6.96068 19.9458C6.38548 21.9456 6.38548 24.067 6.96068 26.0668C7.22596 26.9241 7.66488 27.7175 8.25006 28.3978C8.81514 29.045 9.52384 29.551 10.3195 29.8753C11.2042 30.2245 12.149 30.396 13.1 30.38C14.5665 30.4272 16.0109 30.0132 17.2296 29.1962C17.742 28.8438 18.184 28.3987 18.5328 27.8839C18.927 27.3127 19.4552 26.8467 20.0711 26.5268C20.687 26.2068 21.3719 26.0426 22.0659 26.0485H25.7367C25.537 27.9497 24.862 29.77 23.7738 31.3417C22.6856 32.9134 21.2194 34.1859 19.5102 35.0419C17.5218 36.0156 15.3269 36.4927 13.1138 36.4322Z" fill="white"/>
<path d="M44.4026 19.6663C43.647 18.4867 42.5393 17.5749 41.2365 17.0601C39.6363 16.4384 37.9282 16.142 36.2121 16.1883C35.5147 16.1883 34.753 16.1883 33.9179 16.225C33.0828 16.2617 32.3028 16.2801 31.5365 16.3305C30.7702 16.381 30.1094 16.4223 29.5542 16.4682V21.7541L32.1605 21.6164C33.1103 21.5705 34.0189 21.5338 34.8769 21.5109C35.735 21.488 36.3819 21.4742 36.8224 21.4742C37.7401 21.4742 38.4146 21.6899 38.8229 22.1212C39.2572 22.6535 39.4737 23.3307 39.4286 24.0162H36.4048C34.8405 23.9911 33.2814 24.2015 31.7797 24.6402C30.558 24.9806 29.4593 25.6636 28.6136 26.6087C27.8161 27.5927 27.4079 28.8353 27.4665 30.1005C27.4339 31.2601 27.7418 32.4039 28.352 33.3905C28.9518 34.3119 29.804 35.0415 30.8069 35.492C31.9313 35.9973 33.1534 36.248 34.3859 36.2261C35.5607 36.2628 36.7266 36.0107 37.7813 35.492C38.699 35.0056 40.4748 35.7352 40.4748 35.7352H45.4992V24.085C45.5596 22.538 45.1793 21.0056 44.4026 19.6663ZM38.956 30.6787C38.7221 31.125 38.3503 31.4838 37.8961 31.7019C37.4311 31.9076 36.9269 32.0093 36.4186 32.0001C35.6992 32.0474 34.9893 31.8157 34.4363 31.3532C34.2059 31.1391 34.0243 30.8778 33.904 30.5873C33.7836 30.2967 33.7274 29.9835 33.739 29.6692C33.7245 29.3491 33.7793 29.0296 33.8996 28.7327C34.02 28.4357 34.203 28.1682 34.4363 27.9485C34.9893 27.4861 35.6992 27.2543 36.4186 27.3016H39.447V28.6781C39.4328 29.3671 39.265 30.0443 38.956 30.6603V30.6787Z" fill="white"/>
<path d="M57.3558 36.3633C54.5752 36.3633 52.385 35.7898 50.7851 34.6427C50.0043 34.0932 49.3641 33.3671 48.9168 32.5235C48.4695 31.68 48.2277 30.7427 48.2109 29.7881H53.7584C53.8205 30.1001 53.9489 30.3951 54.135 30.6532C54.321 30.9113 54.5604 31.1264 54.8368 31.2839C55.6373 31.7476 56.5562 31.9662 57.4797 31.9125C58.1975 31.9283 58.9113 31.8036 59.5812 31.5454C59.8399 31.4688 60.0666 31.31 60.2272 31.0932C60.3878 30.8763 60.4735 30.6131 60.4713 30.3433C60.469 30.1003 60.4036 29.8621 60.2813 29.6521C60.159 29.4421 59.9842 29.2676 59.774 29.1457C59.309 28.8398 58.4632 28.6256 57.2365 28.5033L55.915 28.361C53.4678 28.1102 51.6585 27.4388 50.4869 26.3467C49.9211 25.8257 49.4731 25.1897 49.1732 24.4814C48.8733 23.7732 48.7283 23.009 48.7479 22.24C48.6976 20.9906 49.0658 19.7601 49.794 18.7436C50.5385 17.7921 51.54 17.0739 52.6801 16.6742C54.0292 16.1907 55.4549 15.9559 56.8878 15.9814C59.4604 15.9814 61.5359 16.5427 63.1143 17.6653C63.8884 18.2165 64.5196 18.9446 64.9554 19.789C65.3912 20.6334 65.619 21.5697 65.6197 22.5199H60.0538C59.948 21.9224 59.6098 21.3911 59.1132 21.0424C58.4358 20.5934 57.6298 20.379 56.8189 20.4322C56.2103 20.4079 55.6056 20.539 55.0616 20.813C54.8574 20.9093 54.6849 21.0619 54.5646 21.253C54.4442 21.4441 54.3811 21.6655 54.3825 21.8913C54.3727 22.1141 54.4282 22.335 54.5424 22.5266C54.6565 22.7182 54.8242 22.8722 55.0249 22.9696C55.6788 23.2636 56.3792 23.4407 57.0943 23.4927L58.4157 23.6303C60.8629 23.8873 62.7595 24.5664 64.1055 25.6676C64.7511 26.1858 65.2677 26.8467 65.6149 27.5983C65.962 28.3498 66.13 29.1716 66.106 29.9991C66.1366 31.2211 65.7642 32.4192 65.0461 33.4084C64.2643 34.41 63.2141 35.169 62.0177 35.5971C60.5241 36.1371 58.9437 36.3969 57.3558 36.3633Z" fill="white"/>
<path d="M89.8284 21.7909C89.4516 20.6586 88.8543 19.6122 88.071 18.712C87.3108 17.8471 86.3713 17.1581 85.3179 16.6931C84.1868 16.2065 82.9656 15.9641 81.7343 15.9819C80.2064 15.9819 77.5818 16.3214 76.4026 17.0051C75.2233 17.6888 69.2812 16.5462 69.2812 16.5462V42.7005H75.6133V36.0656C75.6133 35.8709 75.6658 35.6798 75.7649 35.5122C75.8641 35.3446 76.0064 35.2068 76.1771 35.113C76.3477 35.0192 76.5404 34.973 76.7351 34.9791C76.9297 34.9853 77.1191 35.0436 77.2835 35.1479C77.4626 35.2678 77.6479 35.378 77.8387 35.4783C79.0588 36.0865 80.408 36.3903 81.7711 36.3638C83.0433 36.3875 84.3058 36.1388 85.474 35.6343C86.5304 35.1624 87.4643 34.4545 88.2041 33.5649C88.963 32.6412 89.5307 31.5759 89.8743 30.431C90.2559 29.1634 90.4431 27.8453 90.4294 26.5216V25.6865C90.4455 24.3636 90.2425 23.0473 89.8284 21.7909ZM83.5835 28.7103C83.2594 29.4345 82.7418 30.0553 82.0876 30.5044C81.4339 30.9369 80.6643 31.1609 79.8806 31.1468C79.1667 31.142 78.464 30.9691 77.8295 30.642C77.1552 30.3074 76.5796 29.8029 76.1594 29.1783C75.7083 28.4998 75.4775 27.6986 75.4985 26.8841V25.7048C75.4728 24.8501 75.6892 24.0055 76.1226 23.2684C76.5151 22.6213 77.0746 22.0919 77.7424 21.7358C78.4021 21.3909 79.1362 21.2129 79.8806 21.2173C80.6657 21.1969 81.4395 21.4075 82.106 21.823C82.746 22.2453 83.2573 22.8359 83.5835 23.5299C83.9629 24.3403 84.1483 25.2279 84.1249 26.1224C84.1386 27.0145 83.9536 27.8985 83.5835 28.7103Z" fill="white"/>
<path d="M102.924 36.4324C101.444 36.4597 99.974 36.1751 98.6108 35.5973C97.4064 35.0774 96.327 34.3061 95.4448 33.3352C93.747 31.4571 92.8054 29.0164 92.8018 26.4846V25.7871C92.7972 24.511 93.0274 23.2449 93.4809 22.0521C93.9195 20.8758 94.58 19.7948 95.4264 18.8677C96.2987 17.9217 97.3602 17.1698 98.542 16.6607C99.8588 16.0958 101.28 15.8159 102.713 15.8393C104.561 15.7773 106.387 16.2557 107.967 17.2159C109.38 18.1175 110.522 19.3863 111.27 20.8867C112.04 22.4258 112.434 24.1259 112.418 25.8468V27.8795H95.4402V24.4703H108.747L106.558 26.0028C106.573 25.0649 106.417 24.1321 106.099 23.2497C105.855 22.5578 105.405 21.9573 104.81 21.529C104.175 21.1159 103.428 20.9092 102.672 20.9371C101.907 20.919 101.153 21.1178 100.497 21.5107C99.8576 21.9296 99.3651 22.5375 99.088 23.2497C98.7372 24.1894 98.572 25.1883 98.6016 26.1909C98.583 27.1291 98.7386 28.0626 99.0605 28.944C99.3205 29.6712 99.8019 30.2987 100.437 30.7381C101.169 31.1835 102.017 31.4008 102.873 31.3621C103.623 31.3873 104.368 31.2299 105.044 30.9033C105.571 30.6441 105.995 30.2139 106.246 29.6827H112.018C111.755 30.9581 111.189 32.1512 110.367 33.1608C109.526 34.1962 108.454 35.0198 107.237 35.5652C105.878 36.1589 104.407 36.4546 102.924 36.4324Z" fill="white"/>
<path d="M115.758 35.7352V16.537L120.75 17.7851C120.75 17.7851 125.109 16.2388 127.22 16.2388H127.986V21.6853H126.527C125.109 21.6853 124.017 22.0661 123.237 22.8324C122.457 23.5987 122.071 24.6999 122.071 26.1361V35.7352H115.758Z" fill="white"/>
<path d="M12.2513 43.8933C11.2399 43.5011 10.1606 43.3139 9.07616 43.3427C8.61731 43.3427 8.1584 43.3427 7.63532 43.3427C7.11223 43.3427 6.61207 43.3794 6.13028 43.4115C5.6485 43.4437 5.2126 43.4666 4.87764 43.4987V46.8391C5.37778 46.807 5.92385 46.7795 6.52494 46.752C7.12603 46.7244 7.69959 46.7015 8.24103 46.6831C8.78247 46.6648 9.19081 46.6831 9.47071 46.6831C9.69815 46.661 9.9277 46.6854 10.1454 46.7548C10.3631 46.8242 10.5645 46.9372 10.7371 47.0869C11.0081 47.4251 11.1439 47.8519 11.118 48.2845H9.20913C8.22063 48.2697 7.23553 48.4027 6.28633 48.6791C5.51427 48.8937 4.81992 49.3253 4.28571 49.9226C3.78074 50.5458 3.52277 51.333 3.56081 52.1342C3.53946 52.8656 3.73416 53.587 4.12059 54.2082C4.49801 54.7907 5.03465 55.2525 5.66684 55.5389C6.37965 55.8561 7.15346 56.0128 7.93352 55.9977C8.6746 56.0227 9.41054 55.8651 10.0764 55.5389C10.6546 55.2315 11.7787 55.6949 11.7787 55.6949H14.9447V48.3533C14.9842 47.3749 14.7439 46.4056 14.2519 45.559C13.7757 44.8081 13.076 44.2256 12.2513 43.8933ZM10.8105 52.4875C10.6623 52.7694 10.4274 52.9962 10.1406 53.1345C9.85223 53.2638 9.53891 53.3281 9.22291 53.3227C8.76894 53.3544 8.32022 53.2098 7.97027 52.9189C7.82037 52.785 7.70159 52.6198 7.62232 52.4351C7.54305 52.2504 7.50521 52.0506 7.51142 51.8497C7.50469 51.6461 7.54221 51.4434 7.62143 51.2556C7.70064 51.0679 7.81968 50.8996 7.97027 50.7623C8.32022 50.4714 8.76894 50.3267 9.22291 50.3585H11.1318V51.2119C11.1264 51.6565 11.0162 52.0935 10.8105 52.4875Z" fill="white"/>
<path d="M20.7905 44.1091L17.6245 43.563V55.6995H21.6394V49.629C21.598 49.2495 21.6423 48.8656 21.769 48.5055C21.8958 48.1454 22.1017 47.8184 22.3716 47.5485C22.6415 47.2785 22.9685 47.0726 23.3286 46.9459C23.6887 46.8192 24.0726 46.7749 24.4521 46.8163H25.3698V43.3887H24.8881C23.5437 43.3887 20.7905 44.1091 20.7905 44.1091Z" fill="white"/>
<path d="M44.0586 43.7971C43.3742 43.3622 42.5748 43.1431 41.7643 43.1684H41.5899C40.788 43.1427 39.9973 43.362 39.3232 43.7971C38.6813 44.2613 38.2002 44.9141 37.9467 45.6646C37.944 45.6751 37.944 45.6862 37.9467 45.6967V45.6646C37.6941 44.9136 37.2127 44.2606 36.5702 43.7971C35.8893 43.3543 35.0874 43.1346 34.2759 43.1684H34.0969C33.2964 43.1427 32.5072 43.3621 31.8348 43.7971C31.22 44.2146 30.1417 43.563 30.1417 43.563H26.9756V55.6996H30.9768V48.7297C30.9505 48.2097 31.1135 47.6978 31.4357 47.2889C31.5971 47.1027 31.7986 46.9556 32.0251 46.8587C32.2517 46.7617 32.4972 46.7174 32.7433 46.7291C32.9863 46.7154 33.2292 46.7589 33.4523 46.8561C33.6755 46.9533 33.8727 47.1016 34.0281 47.2889C34.3358 47.6808 34.498 48.1673 34.487 48.6654V55.6812H38.4835V48.7297C38.4596 48.21 38.6224 47.699 38.9424 47.2889C39.1038 47.1027 39.3054 46.9556 39.5319 46.8587C39.7584 46.7617 40.004 46.7174 40.2501 46.7291C40.4938 46.7154 40.7372 46.7588 40.9611 46.856C41.185 46.9532 41.3831 47.1015 41.5395 47.2889C41.8455 47.6817 42.0075 48.1676 41.9983 48.6654V55.6812H45.9995V48.7985C46.0317 47.7336 45.8636 46.672 45.5039 45.6692C45.2267 44.911 44.7219 44.2571 44.0586 43.7971Z" fill="white"/>
<path d="M55.938 43.563L53.9787 52.3545H53.5795L51.1247 43.563H47.1235L50.6612 55.4334H53.2996L53.217 55.8096C53.1665 56.1038 53.0539 56.3837 52.8867 56.6309C52.7405 56.8265 52.5415 56.9761 52.3131 57.0623C52.0369 57.1554 51.7464 57.1989 51.455 57.1908H48.6652V60.5311H51.0054C51.9592 60.5596 52.9115 60.4372 53.8272 60.1687C54.5169 59.9545 55.1188 59.5231 55.5433 58.939C56.0194 58.2222 56.3515 57.4196 56.5207 56.5759L59.7097 43.563H55.938Z" fill="white"/>
<path d="M68.1937 50.3857H62.3159V56.2636H68.1937V50.3857Z" fill="#FF0202"/>
</g>
<path d="M99.7998 9.6C99.8745 9.6 99.9491 9.52533 100.024 9.376C100.098 9.22667 100.136 8.98133 100.136 8.64V0.96C100.136 0.618667 100.098 0.378667 100.024 0.24C99.9491 0.0906665 99.8745 0.0106665 99.7998 0H102.936C102.861 0 102.84 0.0746667 102.872 0.224C102.914 0.373333 103.09 0.629333 103.4 0.992C103.485 1.07733 103.624 1.23733 103.816 1.472C104.018 1.696 104.258 1.968 104.536 2.288C104.813 2.608 105.106 2.95467 105.416 3.328C105.736 3.70133 106.056 4.07467 106.376 4.448C106.706 4.82133 107.021 5.17867 107.32 5.52H107.336V0.96C107.336 0.618667 107.298 0.378667 107.224 0.24C107.149 0.0906665 107.074 0.0106665 107 0H110.136C110.061 0 109.986 0.0746667 109.912 0.224C109.837 0.373333 109.8 0.624 109.8 0.976V8.64C109.8 8.98133 109.837 9.22667 109.912 9.376C109.986 9.52533 110.061 9.6 110.136 9.6H107.384C107.448 9.6 107.453 9.52533 107.4 9.376C107.357 9.22667 107.192 8.97067 106.904 8.608C106.754 8.416 106.557 8.17067 106.312 7.872C106.066 7.56267 105.789 7.22133 105.48 6.848C105.181 6.47467 104.866 6.08533 104.536 5.68C104.205 5.27467 103.874 4.88 103.544 4.496C103.224 4.10133 102.925 3.73867 102.648 3.408H102.6V8.64C102.6 8.98133 102.637 9.22667 102.712 9.376C102.786 9.52533 102.861 9.6 102.936 9.6H99.7998Z" fill="#FF0202"/>
<path d="M111.737 9.6C111.812 9.6 111.887 9.52533 111.961 9.376C112.036 9.22667 112.073 8.98133 112.073 8.64V0.96C112.073 0.618667 112.036 0.378667 111.961 0.24C111.887 0.0906665 111.812 0.0106665 111.737 0H121.081V0.48L121.401 2.336C121.135 2.21867 120.665 2.096 119.993 1.968C119.321 1.82933 118.511 1.76 117.561 1.76H115.193C114.873 1.76 114.681 1.78667 114.617 1.84C114.564 1.88267 114.537 2.016 114.537 2.24V3.424C114.537 3.65867 114.564 3.79733 114.617 3.84C114.681 3.88267 114.868 3.904 115.177 3.904H117.481C118.1 3.904 118.596 3.872 118.969 3.808C119.353 3.73333 119.604 3.65867 119.721 3.584C119.679 3.78667 119.631 4.02133 119.577 4.288C119.524 4.55467 119.481 4.81067 119.449 5.056C119.417 5.30133 119.401 5.504 119.401 5.664H115.177C114.868 5.664 114.681 5.68533 114.617 5.728C114.564 5.76 114.537 5.89867 114.537 6.144V8.64C114.537 8.992 114.575 9.24267 114.649 9.392C114.724 9.53067 114.799 9.6 114.873 9.6H111.737Z" fill="#FF0202"/>
<path d="M125.591 9.6C125.665 9.6 125.74 9.52533 125.815 9.376C125.889 9.22667 125.927 8.98133 125.927 8.64V2.24C125.927 2.00533 125.9 1.86667 125.847 1.824C125.793 1.78133 125.607 1.76 125.287 1.76H124.119C123.5 1.76 122.999 1.82933 122.615 1.968C122.241 2.096 121.996 2.21867 121.879 2.336L122.199 0.48V0H132.119V0.48L132.439 2.336C132.321 2.21867 132.071 2.096 131.687 1.968C131.313 1.82933 130.817 1.76 130.199 1.76H129.047C128.716 1.76 128.524 1.78133 128.471 1.824C128.417 1.86667 128.391 2.00533 128.391 2.24V8.64C128.391 8.98133 128.428 9.22667 128.503 9.376C128.577 9.52533 128.652 9.6 128.727 9.6H125.591Z" fill="#FF0202"/>
<defs>
<clipPath id="clip0_97_208">
<rect width="128" height="50.9504" fill="white" transform="translate(0 9.58057)"/>
</clipPath>
</defs>
</svg>
