<svg width="264" height="128" viewBox="0 0 264 128" fill="none" xmlns="http://www.w3.org/2000/svg">
<path d="M33.9896 65.696C29.63 65.8125 25.3012 64.9353 21.3309 63.1306C17.9626 61.5369 14.9862 59.2215 12.613 56.3486C10.3783 53.6407 8.65944 50.5458 7.54168 47.2175C6.48439 44.1487 5.9302 40.9291 5.90042 37.6834V36.0419C5.90141 32.6076 6.46922 29.197 7.58103 25.9476C8.69681 22.6485 10.4425 19.5975 12.7212 16.9639C15.115 14.2235 18.0764 12.0367 21.3997 10.5554C25.2542 8.8955 29.4206 8.08429 33.6163 8.17678C38.1837 8.1034 42.7077 9.07148 46.8452 11.0075C50.6102 12.7656 53.8362 15.4993 56.1884 18.9249C58.5405 22.3505 59.9331 26.3432 60.2217 30.4886H52.359C50.8451 30.4889 49.3542 30.1159 48.0188 29.4027C46.6833 28.6895 45.5445 27.6581 44.7027 26.3997C44.5139 26.1142 44.3104 25.8386 44.0932 25.5741C42.9102 24.1561 41.4034 23.0436 39.7 22.3305C37.7618 21.5348 35.6816 21.1435 33.5868 21.1805C31.6068 21.1499 29.642 21.5315 27.8174 22.301C26.1511 23.0083 24.6712 24.0916 23.4931 25.466C22.2834 26.9112 21.3715 28.5814 20.8099 30.3805C19.5779 34.6643 19.5779 39.2085 20.8099 43.4923C21.3782 45.3286 22.3183 47.0282 23.5718 48.4854C24.7821 49.8718 26.3001 50.9557 28.0043 51.6503C29.8994 52.3985 31.9231 52.7659 33.9601 52.7316C37.1013 52.8327 40.1951 51.9458 42.8056 50.1957C43.9032 49.4408 44.8499 48.4874 45.597 47.3846C46.4414 46.161 47.5727 45.1628 48.892 44.4775C50.2112 43.7921 51.6782 43.4404 53.1647 43.453H61.0274C60.5997 47.5255 59.1538 51.4248 56.823 54.7915C54.4922 58.1583 51.3517 60.8841 47.6905 62.7178C43.4316 64.8037 38.7302 65.8256 33.9896 65.696Z" fill="white"/>
<path d="M98.093 29.7822C96.4746 27.2554 94.1019 25.3021 91.3113 24.1993C87.8838 22.8675 84.2252 22.2327 80.5493 22.3318C79.0554 22.3318 77.4239 22.3318 75.6352 22.4104C73.8464 22.4891 72.1757 22.5284 70.5343 22.6365C68.893 22.7447 67.4776 22.8331 66.2884 22.9314V34.2544L71.8708 33.9595C73.9053 33.8612 75.8515 33.7826 77.6894 33.7334C79.5273 33.6843 80.9131 33.6548 81.8566 33.6548C83.8223 33.6548 85.2669 34.1168 86.1416 35.0407C87.0718 36.1811 87.5354 37.6316 87.439 39.1001H80.9621C77.6114 39.0464 74.2719 39.497 71.0552 40.4368C68.4384 41.1658 66.085 42.629 64.2736 44.6534C62.5655 46.7612 61.6911 49.4231 61.8165 52.1333C61.7468 54.6173 62.4061 57.0673 63.7133 59.1807C64.9979 61.1546 66.8233 62.7173 68.9715 63.6824C71.3799 64.7648 73.9977 65.3018 76.6377 65.255C79.1541 65.3336 81.6513 64.7936 83.9106 63.6824C85.8762 62.6405 89.6799 64.2033 89.6799 64.2033H100.442V39.2475C100.571 35.9335 99.7568 32.651 98.093 29.7822ZM86.4267 53.3717C85.9256 54.3277 85.1293 55.0965 84.1563 55.5636C83.1603 56.0042 82.0804 56.2221 80.9916 56.2025C79.4508 56.3036 77.9301 55.8073 76.7457 54.8166C76.2521 54.358 75.8632 53.7984 75.6054 53.1759C75.3476 52.5534 75.2272 51.8827 75.252 51.2094C75.2209 50.5237 75.3382 49.8393 75.5961 49.2032C75.8539 48.567 76.246 47.9941 76.7457 47.5235C77.9301 46.5328 79.4508 46.0365 80.9916 46.1376H87.4784V49.0863C87.4479 50.5623 87.0885 52.0129 86.4267 53.3324V53.3717Z" fill="white"/>
<path d="M122.192 65.5486C116.236 65.5486 111.545 64.32 108.118 61.8627C106.445 60.6857 105.074 59.1304 104.116 57.3233C103.158 55.5163 102.64 53.5086 102.604 51.4636H114.487C114.62 52.132 114.895 52.764 115.293 53.3168C115.692 53.8697 116.204 54.3304 116.796 54.6679C118.511 55.6612 120.479 56.1294 122.458 56.0145C123.995 56.0483 125.524 55.7812 126.959 55.2282C127.513 55.0639 127.999 54.7239 128.343 54.2594C128.687 53.7948 128.87 53.231 128.865 52.653C128.861 52.1325 128.72 51.6222 128.458 51.1724C128.197 50.7226 127.822 50.3487 127.372 50.0876C126.376 49.4324 124.564 48.9736 121.937 48.7115L119.106 48.4068C113.864 47.8695 109.989 46.4312 107.479 44.0919C106.267 42.9758 105.308 41.6135 104.665 40.0963C104.023 38.5791 103.712 36.9421 103.754 35.295C103.647 32.6186 104.435 29.9828 105.995 27.8053C107.59 25.767 109.735 24.2286 112.177 23.3725C115.067 22.3367 118.12 21.8338 121.19 21.8883C126.7 21.8883 131.146 23.0907 134.527 25.4955C136.185 26.6761 137.537 28.2357 138.47 30.0446C139.404 31.8534 139.891 33.8591 139.893 35.8946H127.971C127.744 34.6146 127.02 33.4766 125.956 32.7296C124.505 31.7676 122.779 31.3084 121.042 31.4224C119.738 31.3704 118.443 31.6511 117.278 32.2382C116.841 32.4444 116.471 32.7714 116.213 33.1807C115.956 33.5899 115.82 34.0644 115.823 34.548C115.802 35.0253 115.921 35.4983 116.166 35.9088C116.41 36.3192 116.77 36.6491 117.199 36.8578C118.6 37.4876 120.1 37.8669 121.632 37.9783L124.462 38.2732C129.704 38.8236 133.767 40.2783 136.65 42.6372C138.032 43.7473 139.139 45.1629 139.883 46.7729C140.626 48.3828 140.986 50.1432 140.935 51.9158C141 54.5334 140.203 57.0998 138.664 59.2187C136.99 61.3644 134.74 62.9903 132.178 63.9072C128.978 65.064 125.593 65.6205 122.192 65.5486Z" fill="white"/>
<path d="M188.101 34.3329C187.294 31.9075 186.015 29.666 184.337 27.7376C182.709 25.8849 180.697 24.4091 178.44 23.4129C176.017 22.3706 173.401 21.8514 170.764 21.8894C167.491 21.8894 161.87 22.6167 159.344 24.0812C156.818 25.5458 144.09 23.0983 144.09 23.0983V79.1235H157.653V64.9109C157.653 64.4938 157.766 64.0843 157.978 63.7254C158.19 63.3664 158.495 63.0711 158.861 62.8703C159.226 62.6694 159.639 62.5703 160.056 62.5835C160.473 62.5967 160.879 62.7215 161.231 62.9451C161.614 63.2018 162.011 63.438 162.42 63.6527C165.033 64.9555 167.923 65.6064 170.843 65.5497C173.568 65.6005 176.272 65.0677 178.774 63.9869C181.037 62.9762 183.038 61.4596 184.622 59.5541C186.248 57.5755 187.464 55.2935 188.2 52.8408C189.017 50.1256 189.418 47.302 189.389 44.4665V42.6777C189.423 39.844 188.988 37.0243 188.101 34.3329ZM174.725 49.155C174.031 50.7064 172.922 52.0361 171.521 52.9981C170.121 53.9247 168.472 54.4045 166.793 54.3742C165.264 54.364 163.759 53.9936 162.4 53.293C160.956 52.5762 159.723 51.4956 158.823 50.1576C157.857 48.704 157.362 46.9878 157.407 45.2431V42.717C157.352 40.8861 157.816 39.0769 158.744 37.4978C159.585 36.1117 160.783 34.9777 162.214 34.2149C163.627 33.4761 165.199 33.0947 166.793 33.1042C168.475 33.0606 170.133 33.5117 171.56 34.4017C172.931 35.3064 174.026 36.5715 174.725 38.0581C175.538 39.794 175.935 41.6953 175.885 43.6114C175.914 45.5224 175.518 47.416 174.725 49.155Z" fill="white"/>
<path d="M213.235 65.6969C210.064 65.7554 206.916 65.1459 203.996 63.9081C201.416 62.7943 199.104 61.1422 197.215 59.0624C193.578 55.0392 191.561 49.8111 191.554 44.3877V42.8937C191.544 40.1601 192.037 37.448 193.008 34.8929C193.948 32.3732 195.362 30.0575 197.175 28.0716C199.044 26.0452 201.318 24.4344 203.849 23.3438C206.669 22.1338 209.714 21.5343 212.783 21.5845C216.741 21.4516 220.652 22.4763 224.036 24.5332C227.064 26.4645 229.51 29.1824 231.113 32.3963C232.762 35.6933 233.604 39.3351 233.57 43.0215V47.3757H197.205V40.0728H225.707L221.019 43.3556C221.05 41.3466 220.717 39.3485 220.036 37.4582C219.514 35.9762 218.55 34.6898 217.274 33.7724C215.915 32.8874 214.315 32.4445 212.694 32.5044C211.057 32.4655 209.441 32.8915 208.036 33.7331C206.667 34.6304 205.612 35.9327 205.018 37.4582C204.267 39.4712 203.913 41.6109 203.977 43.7586C203.937 45.7683 204.27 47.7679 204.959 49.656C205.516 51.2138 206.547 52.5579 207.908 53.4991C209.476 54.4533 211.293 54.9188 213.127 54.8359C214.733 54.8899 216.329 54.5526 217.776 53.853C218.905 53.2979 219.813 52.3762 220.35 51.2385H232.715C232.152 53.9704 230.938 56.5262 229.177 58.6889C227.376 60.9068 225.08 62.671 222.474 63.8393C219.562 65.111 216.412 65.7444 213.235 65.6969Z" fill="white"/>
<path d="M237.807 64.203V23.0786L248.501 25.7521C248.501 25.7521 257.838 22.4397 262.359 22.4397H264V34.1067H260.875C257.838 34.1067 255.498 34.9225 253.827 36.5639C252.157 38.2054 251.331 40.5643 251.331 43.6408V64.203H237.807Z" fill="white"/>
<path d="M28.4464 87.7272C26.053 86.8105 23.499 86.373 20.9329 86.4403C19.8471 86.4403 18.7611 86.4403 17.5233 86.4403C16.2855 86.4403 15.102 86.5261 13.9619 86.6011C12.8218 86.6762 11.7903 86.7298 10.9977 86.8049V94.6118C12.1812 94.5367 13.4734 94.4724 14.8958 94.408C16.3182 94.3437 17.6754 94.2901 18.9566 94.2472C20.2379 94.2043 21.2042 94.2472 21.8665 94.2472C22.4047 94.1954 22.9479 94.2524 23.4631 94.4147C23.9783 94.5769 24.4547 94.841 24.8633 95.1909C25.5046 95.9812 25.8258 96.9787 25.7646 97.9897H21.2475C18.9084 97.9552 16.5773 98.2661 14.3312 98.912C12.5042 99.4136 10.8611 100.422 9.597 101.818C8.40207 103.275 7.79162 105.114 7.88163 106.987C7.83112 108.696 8.29185 110.382 9.20626 111.834C10.0994 113.195 11.3692 114.275 12.8652 114.944C14.552 115.685 16.3831 116.052 18.229 116.016C19.9826 116.075 21.7241 115.706 23.2998 114.944C24.6679 114.226 27.3281 115.309 27.3281 115.309H34.8199V98.1506C34.9134 95.864 34.3446 93.5985 33.1803 91.6199C32.0536 89.8651 30.398 88.5036 28.4464 87.7272ZM25.0369 107.813C24.6861 108.471 24.1305 109.001 23.4517 109.325C22.7693 109.627 22.0279 109.777 21.2801 109.764C20.2059 109.839 19.144 109.501 18.3159 108.821C17.9612 108.508 17.6802 108.122 17.4926 107.69C17.305 107.259 17.2155 106.792 17.2301 106.322C17.2142 105.846 17.303 105.372 17.4905 104.934C17.6779 104.495 17.9596 104.101 18.3159 103.781C19.144 103.101 20.2059 102.763 21.2801 102.837H25.7972V104.831C25.7843 105.87 25.5237 106.892 25.0369 107.813Z" fill="white"/>
<path d="M48.6612 88.1266L41.4048 86.8434V115.365H50.6069V101.099C50.5121 100.207 50.6135 99.3046 50.904 98.4584C51.1944 97.6122 51.6664 96.8436 52.2851 96.2093C52.9037 95.575 53.6532 95.0911 54.4785 94.7933C55.3038 94.4955 56.1838 94.3914 57.0535 94.4886H59.1569V86.4336H58.0528C54.9714 86.4336 48.6612 88.1266 48.6612 88.1266Z" fill="white"/>
<path d="M103.241 87.2681C101.633 86.2414 99.7547 85.7244 97.8503 85.7842H97.4405C95.5563 85.7233 93.6985 86.241 92.1146 87.2681C90.6063 88.3638 89.4757 89.9048 88.8801 91.6765C88.8738 91.7013 88.8738 91.7274 88.8801 91.7523V91.6765C88.2865 89.9038 87.1555 88.3623 85.6457 87.2681C84.0459 86.2229 82.1617 85.7042 80.255 85.7842H79.8344C77.9536 85.7235 76.0993 86.2412 74.5193 87.2681C73.0746 88.2537 70.541 86.7156 70.541 86.7156H63.1017V115.365H72.5033V98.9119C72.4413 97.6845 72.8244 96.4761 73.5814 95.5108C73.9608 95.0714 74.4342 94.7242 74.9665 94.4953C75.4987 94.2664 76.0757 94.1618 76.654 94.1894C77.225 94.157 77.7956 94.2597 78.3199 94.4892C78.8442 94.7187 79.3076 95.0686 79.6728 95.5108C80.3958 96.4359 80.7768 97.5844 80.7509 98.7602V115.322H90.1415V98.9119C90.0854 97.6853 90.4678 96.4789 91.2196 95.5108C91.599 95.0714 92.0727 94.7242 92.6049 94.4953C93.1372 94.2664 93.7141 94.1618 94.2924 94.1894C94.865 94.157 95.437 94.2596 95.9631 94.4891C96.4891 94.7185 96.9547 95.0684 97.3221 95.5108C98.0411 96.438 98.4217 97.585 98.4002 98.7602V115.322H107.802V99.0744C107.877 96.5605 107.482 94.0547 106.637 91.6873C105.986 89.8976 104.8 88.354 103.241 87.2681Z" fill="white"/>
<path d="M131.622 87.0911L126.913 107.867H125.954L120.055 87.0911H110.441L118.942 115.144H125.282L125.083 116.033C124.962 116.728 124.691 117.389 124.289 117.974C123.938 118.436 123.46 118.789 122.911 118.993C122.247 119.213 121.549 119.316 120.849 119.297H114.145V127.191H119.769C122.061 127.258 124.349 126.969 126.55 126.334C128.207 125.828 129.653 124.809 130.673 123.428C131.817 121.734 132.615 119.837 133.022 117.844L140.685 87.0911H131.622Z" fill="white"/>
<path d="M157.78 102.872H143.973V116.68H157.78V102.872Z" fill="#FF0202"/>
<g filter="url(#filter0_f_232_4433)">
<path fill-rule="evenodd" clip-rule="evenodd" d="M10.7126 52.1789C8.47787 49.4711 6.75902 46.3761 5.64126 43.0478C4.58397 39.979 4.02978 36.7594 4 33.5137V31.8722C4.00099 28.4379 4.5688 25.0273 5.68061 21.7779C6.79639 18.4788 8.54209 15.4278 10.8208 12.7942C13.2146 10.0538 16.1759 7.86707 19.4993 6.3857C23.3538 4.72582 27.5202 3.91462 31.7159 4.00711C36.2833 3.93372 40.8073 4.9018 44.9448 6.83786C48.7098 8.59595 51.9358 11.3296 54.2879 14.7552C56.4503 17.9045 57.8017 21.533 58.2299 25.3189C58.2675 25.6511 58.298 25.9845 58.3212 26.3189H57.3187H50.4586C48.9446 26.3192 47.4538 25.9462 46.1184 25.2331C44.7829 24.5199 43.6441 23.4884 42.8023 22.23C42.6135 21.9445 42.41 21.6689 42.1928 21.4044C41.0098 19.9864 39.503 18.8739 37.7995 18.1609C35.8614 17.3652 33.7811 16.9738 31.6864 17.0108C29.7064 16.9803 27.7416 17.3619 25.917 18.1313C24.2507 18.8386 22.7707 19.9219 21.5926 21.2963C20.383 22.7415 19.4711 24.4117 18.9095 26.2108C17.6775 30.4946 17.6775 35.0388 18.9095 39.3226C19.4777 41.1589 20.4179 42.8585 21.6713 44.3158C22.8817 45.7021 24.3997 46.786 26.1039 47.4807C27.999 48.2288 30.0227 48.5962 32.0597 48.5619C35.2009 48.663 38.2947 47.7761 40.9052 46.026C42.0027 45.2712 42.9495 44.3178 43.6966 43.2149C44.541 41.9913 45.6723 40.9932 46.9915 40.3078C48.3108 39.6224 49.7777 39.2707 51.2643 39.2833H58.1213H59.127C59.0919 39.6179 59.0499 39.9513 59.001 40.2833C58.4558 43.9929 57.0619 47.5317 54.9226 50.6219C52.5918 53.9886 49.4513 56.7144 45.7901 58.5481C41.5312 60.634 36.8297 61.6559 32.0892 61.5263L32.1166 60.5267C36.6938 60.6519 41.2333 59.6655 45.3459 57.6522C48.8554 55.8937 51.8659 53.2803 54.1004 50.0527C56.1241 47.1296 57.4522 43.7879 57.9898 40.2833H51.2643H51.2558V40.2833C49.9326 40.272 48.6269 40.5851 47.4526 41.1952C46.2794 41.8047 45.2731 42.6921 44.5217 43.7798C43.7051 44.9842 42.6707 46.0254 41.4719 46.8499L41.4621 46.8567L41.4621 46.8566C38.6845 48.7187 35.394 49.6646 32.0521 49.5621C29.8919 49.5953 27.7463 49.2042 25.7367 48.4108L25.7264 48.4067L25.7265 48.4067C23.8778 47.6531 22.231 46.4774 20.918 44.9734L20.9132 44.9679C19.5703 43.4066 18.563 41.5856 17.9542 39.6182L17.9512 39.6087L17.9485 39.599C16.6645 35.1346 16.6645 30.3988 17.9485 25.9344L17.9516 25.9236L17.9549 25.9128C18.5558 23.9879 19.5315 22.2008 20.8258 20.6545L20.8333 20.6455L20.8334 20.6455C22.1119 19.154 23.718 17.9784 25.5263 17.2108L25.5284 17.2099C27.4757 16.3887 29.5722 15.9804 31.6852 16.0107C33.9106 15.9736 36.1203 16.3904 38.1793 17.2358L38.1857 17.2384C40.0371 18.0134 41.6749 19.2226 42.9607 20.7638L42.9656 20.7698L42.9656 20.7698C43.204 21.06 43.4274 21.3625 43.6349 21.6762C44.3852 22.797 45.3998 23.7156 46.5894 24.351C47.7799 24.9867 49.1088 25.3192 50.4584 25.3189L50.4586 25.3189L57.2233 25.3189C56.7996 21.7362 55.5117 18.3041 53.4636 15.3213C51.2125 12.0428 48.125 9.42653 44.5217 7.74394L44.5209 7.7436C40.5211 5.87192 36.1474 4.93603 31.7319 5.00698L31.7129 5.00728L31.6938 5.00686C27.6437 4.91758 23.6218 5.70019 19.9007 7.30165C16.7129 8.72359 13.8722 10.8216 11.5755 13.4503C9.38224 15.9856 7.70196 18.9226 6.6279 22.0983L6.62676 22.1017C5.55061 25.2468 5.00099 28.548 5 31.8722V31.8723L5 31.8725L5 33.5091C5.02927 36.6455 5.56503 39.7566 6.58672 42.7221L6.58925 42.7295L6.58922 42.7295C7.668 45.9417 9.32686 48.9286 11.4836 51.5421C13.7617 54.2998 16.6185 56.5229 19.8512 58.0538C23.6815 59.7934 27.8572 60.6391 32.0625 60.5267L32.0892 61.5263C27.7296 61.6429 23.4008 60.7656 19.4304 58.961C16.0622 57.3672 13.0858 55.0518 10.7126 52.1789ZM89.4109 20.0296C92.2014 21.1324 94.5742 23.0856 96.1926 25.6124C97.8564 28.4813 98.6709 31.7638 98.5415 35.0778V59.0336V60.0336H97.5415H87.7795C87.7795 60.0336 83.9758 58.4708 82.0101 59.5126C79.7509 60.6239 77.2537 61.1638 74.7373 61.0853C72.0973 61.132 69.4795 60.5951 67.0711 59.5126C64.9229 58.5476 63.0975 56.9849 61.8129 55.011C60.5057 52.8976 59.8464 50.4476 59.9161 47.9636C59.7906 45.2534 60.665 42.5915 62.3731 40.4837C64.1846 38.4593 66.538 36.9961 69.1548 36.2671C72.3715 35.3272 75.711 34.8766 79.0616 34.9304H85.5386C85.5554 34.6751 85.5552 34.4203 85.5386 34.1676C85.5334 34.0883 85.5266 34.0092 85.5181 33.9304C85.3989 32.8154 84.9589 31.7509 84.2412 30.871C83.3665 29.9471 81.9218 29.4851 79.9562 29.4851C79.0126 29.4851 77.6269 29.5146 75.789 29.5637C73.9511 29.6129 72.0049 29.6915 69.9704 29.7898L65.388 30.0318L64.388 30.0847V29.0833V18.7617C65.3799 18.6797 66.5292 18.6045 67.8357 18.5191L67.836 18.5191L68.6339 18.4668C69.729 18.3947 70.8371 18.3532 71.9846 18.3101C72.5571 18.2887 73.1394 18.2669 73.7348 18.2407C75.5225 18.1621 77.1532 18.1621 78.6465 18.1621H78.6489C82.3247 18.0629 85.9834 18.6978 89.4109 20.0296ZM97.5415 35.0778V59.0336H87.9672L87.9653 59.0328C87.8475 58.9884 87.6797 58.9272 87.4732 58.8578C87.0618 58.7195 86.4884 58.5454 85.8446 58.4053C85.2048 58.266 84.4695 58.1545 83.7409 58.1545C83.027 58.1545 82.2443 58.2612 81.5565 58.6213C79.4473 59.6563 77.1169 60.1591 74.7685 60.0857L74.744 60.085L74.7196 60.0854C72.2268 60.1296 69.7551 59.6226 67.4811 58.6005L67.4809 58.6005C65.5112 57.7156 63.837 56.2837 62.6573 54.4752C61.457 52.5302 60.8515 50.2765 60.9157 47.9916L60.9167 47.9545L60.915 47.9174C60.8013 45.4601 61.5911 43.0466 63.1348 41.1322C64.8166 39.2596 66.9983 37.9059 69.4232 37.2304L69.4232 37.2305L69.4353 37.2269C72.5556 36.3152 75.7952 35.8781 79.0456 35.9302L79.0536 35.9304H79.0616H85.5386H86.4751L86.5365 34.9959C86.6495 33.275 86.1061 31.5752 85.0161 30.2389L84.9928 30.2103L84.9674 30.1835C83.8201 28.9716 82.0447 28.4851 79.9562 28.4851C78.9975 28.4851 77.599 28.5149 75.7622 28.5641C73.9151 28.6135 71.9613 28.6924 69.9222 28.7909L69.9177 28.7911L65.388 29.0305V19.6872C66.1446 19.6318 66.9801 19.5772 67.8985 19.5172L68.6996 19.4646C69.781 19.3934 70.8647 19.3528 72.0031 19.3102C72.5788 19.2886 73.1684 19.2666 73.7787 19.2397C75.5425 19.1622 77.1534 19.1621 78.6489 19.1621H78.6624L78.6759 19.1618C82.2178 19.0662 85.7432 19.6777 89.046 20.9606C91.6333 21.9838 93.8343 23.7931 95.3387 26.1333C96.8999 28.8337 97.6639 31.9215 97.5422 35.0387L97.5415 35.0582V35.0778ZM85.412 49.6662L85.5263 49.4482V49.3935C86.1871 47.9998 86.5459 46.4811 86.5777 44.9372L86.578 44.9269V44.9166V41.9679V40.9679H85.578H79.1227C77.3369 40.8594 75.5767 41.4384 74.2037 42.5867L74.1811 42.6056L74.1596 42.6258C73.5551 43.1952 73.0808 43.8883 72.7689 44.6578C72.462 45.4149 72.3198 46.2282 72.3509 47.0439C72.3271 47.8469 72.4735 48.6461 72.7811 49.3888C73.0939 50.144 73.5657 50.823 74.1646 51.3795L74.1837 51.3972L74.2037 51.4139C75.5746 52.5606 77.3316 53.1395 79.1146 53.0332C80.3347 53.0493 81.5441 52.8022 82.6604 52.3084L82.6746 52.3021L82.6886 52.2954C83.8558 51.7351 84.8109 50.813 85.412 49.6662ZM85.578 44.9166C85.5475 46.3925 85.1881 47.8431 84.5263 49.1627V49.202C84.0252 50.158 83.2289 50.9268 82.2559 51.3939C81.2599 51.8344 80.18 52.0524 79.0912 52.0327C77.5503 52.1339 76.0297 51.6376 74.8452 50.6469C74.3517 50.1883 73.9628 49.6287 73.705 49.0062C73.4472 48.3837 73.3268 47.713 73.3516 47.0397C73.3205 46.354 73.4378 45.6696 73.6956 45.0334C73.9535 44.3973 74.3456 43.8244 74.8452 43.3538C76.0297 42.3631 77.5503 41.8667 79.0912 41.9679H84.578H85.578V42.9679V44.9166ZM106.8 56.8803C110 59.1748 114.461 60.3788 120.292 60.3788V61.3788C114.336 61.3788 109.644 60.1502 106.217 57.693C104.545 56.5159 103.174 54.9606 102.216 53.1536C101.414 51.6422 100.921 49.9905 100.76 48.2939C100.728 47.962 100.71 47.6285 100.704 47.2939H101.704H112.586C112.719 47.9623 112.994 48.5943 113.393 49.1471C113.791 49.6999 114.304 50.1607 114.896 50.4981C116.611 51.4914 118.579 51.9596 120.557 51.8447C122.094 51.8786 123.623 51.6115 125.058 51.0584C125.613 50.8942 126.098 50.5541 126.442 50.0896C126.786 49.6251 126.97 49.0612 126.965 48.4832C126.96 47.9627 126.82 47.4524 126.558 47.0026C126.296 46.5528 125.922 46.179 125.471 45.9179C124.475 45.2626 122.664 44.8039 120.036 44.5418L117.206 44.2371C111.964 43.6998 108.088 42.2615 105.579 39.9222C104.367 38.8061 103.407 37.4438 102.765 35.9266C102.122 34.4094 101.812 32.7724 101.854 31.1253C101.746 28.4488 102.535 25.8131 104.095 23.6356C105.689 21.5973 107.834 20.0589 110.276 19.2027C113.166 18.1669 116.22 17.664 119.289 17.7185C124.8 17.7185 129.245 18.9209 132.626 21.3257C134.284 22.5063 135.636 24.066 136.57 25.8748C137.35 27.3865 137.819 29.0357 137.953 30.7248C137.979 31.0569 137.992 31.3904 137.993 31.7248H137.992H136.993H126.071C125.844 30.4449 125.12 29.3069 124.056 28.5599C122.605 27.5979 120.879 27.1387 119.142 27.2526C117.838 27.2007 116.543 27.4814 115.378 28.0684C114.94 28.2746 114.571 28.6017 114.313 29.0109C114.055 29.4202 113.92 29.8946 113.923 30.3783C113.902 30.8556 114.021 31.3286 114.265 31.739C114.51 32.1495 114.869 32.4794 115.299 32.688C116.7 33.3179 118.2 33.6972 119.731 33.8086L122.562 34.1034C127.804 34.6538 131.866 36.1085 134.749 38.4675C136.132 39.5776 137.239 40.9932 137.982 42.6031C138.726 44.213 139.086 45.9734 139.034 47.746C139.1 50.3636 138.302 52.93 136.764 55.049C135.089 57.1946 132.84 58.8205 130.277 59.7374C127.078 60.8943 123.693 61.4507 120.292 61.3788L120.313 60.3791C123.591 60.4484 126.854 59.912 129.937 58.797L129.94 58.7959C132.319 57.9447 134.408 56.437 135.965 54.4475C137.367 52.509 138.094 50.1634 138.035 47.7711L138.034 47.744L138.035 47.717C138.082 46.0988 137.753 44.4919 137.074 43.0224C136.396 41.5528 135.385 40.2606 134.123 39.2473L134.116 39.2415C131.435 37.0474 127.583 35.6362 122.458 35.098L122.457 35.0979L119.643 34.8048C118 34.6834 116.391 34.2757 114.889 33.6001L114.875 33.594L114.862 33.5876C114.257 33.2936 113.751 32.8289 113.406 32.2508C113.066 31.6799 112.898 31.023 112.923 30.3594C112.924 29.6938 113.112 29.0417 113.467 28.4781C113.824 27.9113 114.334 27.4576 114.939 27.1698C116.237 26.518 117.677 26.2024 119.129 26.2515C121.066 26.1358 122.99 26.6532 124.608 27.7264L124.62 27.7338L124.631 27.7415C125.677 28.4762 126.45 29.5252 126.847 30.7248H136.949C136.818 29.1955 136.388 27.7032 135.681 26.3334C134.821 24.6661 133.574 23.2285 132.046 22.1403C128.882 19.89 124.659 18.7185 119.289 18.7185H119.28L119.271 18.7184C116.323 18.666 113.39 19.1491 110.614 20.1441L110.607 20.1464C108.352 20.9369 106.371 22.3556 104.895 24.2351C103.473 26.2282 102.755 28.6381 102.853 31.0851L102.854 31.1179L102.853 31.1507C102.815 32.6554 103.099 34.1507 103.686 35.5366C104.273 36.9225 105.149 38.167 106.256 39.1866L106.261 39.1907C108.546 41.3206 112.173 42.716 117.307 43.2423L117.313 43.2428L120.139 43.5471C122.758 43.8087 124.778 44.276 125.997 45.0671C126.587 45.4146 127.078 45.9078 127.422 46.4994C127.772 47.0995 127.958 47.78 127.965 48.4739L127.965 48.4752C127.971 49.2702 127.719 50.0457 127.246 50.6847C126.781 51.3122 126.128 51.7747 125.383 52.005C123.849 52.591 122.217 52.8763 120.575 52.8453C118.416 52.9629 116.27 52.4487 114.398 51.3653C113.683 50.9571 113.063 50.4001 112.581 49.7318C112.263 49.2894 112.009 48.8051 111.827 48.2939H101.765C101.922 49.8267 102.374 51.3182 103.099 52.6852C103.983 54.3531 105.249 55.7887 106.793 56.8752L106.8 56.8803ZM168.864 18.7197H168.871L168.878 18.7196C171.373 18.6837 173.848 19.1745 176.14 20.1599C178.261 21.0972 180.153 22.4848 181.684 24.2264C183.274 26.0542 184.486 28.1785 185.252 30.477C186.104 33.0633 186.522 35.7729 186.488 38.4958V38.508L186.488 40.2969L186.488 40.3072C186.517 43.0416 186.13 45.7645 185.342 48.3829L185.341 48.3838C184.644 50.7087 183.491 52.8718 181.951 54.7475C180.466 56.5327 178.592 57.9537 176.472 58.9016C174.102 59.9242 171.541 60.4283 168.961 60.3802L168.942 60.3799L168.923 60.3802C166.168 60.4337 163.442 59.8205 160.975 58.5929C160.601 58.3959 160.238 58.1794 159.886 57.9443L159.876 57.9376L159.866 57.9311C159.363 57.6116 158.783 57.4331 158.187 57.4143C157.591 57.3955 157.001 57.5371 156.479 57.8242C155.956 58.1113 155.521 58.5334 155.217 59.0464C154.913 59.5593 154.753 60.1444 154.753 60.7408V60.7412V73.9539H143.19V20.1266C143.444 20.1712 143.734 20.2211 144.053 20.2744C145.294 20.4825 146.98 20.7451 148.748 20.9619C150.511 21.178 152.379 21.3514 153.979 21.3757C154.779 21.3878 155.533 21.3632 156.186 21.2822C156.814 21.2042 157.452 21.0626 157.945 20.7767C159.045 20.1388 160.932 19.6135 163.042 19.2521C165.122 18.8959 167.289 18.7197 168.864 18.7197ZM182.437 23.568C180.808 21.7153 178.796 20.2394 176.54 19.2432C174.117 18.2009 171.501 17.6817 168.864 17.7197C165.591 17.7197 159.969 18.447 157.443 19.9116C155.349 21.1259 146.241 19.6507 143.19 19.1112C142.561 19.0001 142.19 18.9287 142.19 18.9287V19.9463V73.9539V74.9539H143.19H154.753H155.753V73.9539V60.7412C155.753 60.3241 155.865 59.9147 156.078 59.5557C156.29 59.1967 156.595 58.9014 156.96 58.7006C157.326 58.4997 157.739 58.4007 158.156 58.4138C158.572 58.427 158.978 58.5519 159.33 58.7754C159.714 59.0321 160.111 59.2683 160.519 59.4831C163.133 60.7858 166.023 61.4367 168.942 61.38C171.667 61.4308 174.372 60.898 176.874 59.8173C179.137 58.8065 181.137 57.2899 182.722 55.3844C184.347 53.4058 185.563 51.1239 186.299 48.6712C187.117 45.9559 187.518 43.1324 187.488 40.2969V38.508C187.523 35.6744 187.088 32.8546 186.201 30.1632C185.394 27.7378 184.114 25.4964 182.437 23.568ZM170.172 49.6623L170.18 49.6576L170.187 49.6528C171.738 48.5874 172.967 47.1148 173.736 45.3968C174.587 43.5301 175.013 41.4981 174.984 39.4471C175.035 37.3828 174.606 35.3347 173.73 33.4644L173.73 33.463C172.953 31.8101 171.735 30.4033 170.211 29.3973L170.2 29.3902L170.189 29.3834C168.6 28.3927 166.755 27.889 164.883 27.9345C163.131 27.9266 161.403 28.347 159.85 29.159L159.843 29.1629C158.254 30.0101 156.922 31.2699 155.989 32.8096L155.982 32.8213C154.96 34.5583 154.449 36.5479 154.507 38.562V41.0608C154.459 43.0068 155.012 44.9203 156.09 46.5414L156.093 46.5461C157.088 48.026 158.451 49.2217 160.048 50.0157C161.544 50.7852 163.199 51.1923 164.881 51.2044C166.76 51.2373 168.605 50.6996 170.172 49.6623ZM172.825 33.8884C173.637 35.6243 174.034 37.5257 173.984 39.4417C174.014 41.3527 173.617 43.2463 172.825 44.9853C172.13 46.5367 171.022 47.8665 169.621 48.8284C168.22 49.755 166.572 50.2348 164.893 50.2045C163.364 50.1943 161.859 49.8239 160.5 49.1233C159.055 48.4065 157.823 47.3259 156.922 45.9879C155.956 44.5343 155.462 42.8182 155.507 41.0734V38.5473C155.452 36.7164 155.915 34.9072 156.844 33.3281C157.684 31.942 158.883 30.808 160.313 30.0452C161.726 29.3064 163.299 28.9251 164.893 28.9346C166.575 28.8909 168.232 29.3421 169.66 30.232C171.031 31.1367 172.126 32.4018 172.825 33.8884Z" fill="url(#paint0_linear_232_4433)"/>
</g>
<defs>
<filter id="filter0_f_232_4433" x="0" y="0" width="191.49" height="78.9539" filterUnits="userSpaceOnUse" color-interpolation-filters="sRGB">
<feFlood flood-opacity="0" result="BackgroundImageFix"/>
<feBlend mode="normal" in="SourceGraphic" in2="BackgroundImageFix" result="shape"/>
<feGaussianBlur stdDeviation="2" result="effect1_foregroundBlur_232_4433"/>
</filter>
<linearGradient id="paint0_linear_232_4433" x1="20.6287" y1="5.42532" x2="25.8549" y2="16.8279" gradientUnits="userSpaceOnUse">
<stop stop-color="white"/>
<stop offset="1" stop-color="white" stop-opacity="0"/>
</linearGradient>
</defs>
</svg>
